<svg version="1" xmlns="http://www.w3.org/2000/svg" width="758.667" height="758.667" viewBox="0 0 569.000000 569.000000"><path d="M225.5 12C132.8 15.6 94.3 24.3 70.1 47.4 54.9 62 47.8 76.2 26 136c-5.9 16.2-11.8 31.9-12.9 34.9-1.2 2.9-2 5.5-1.8 5.7.2.3 4.8.5 10.2.7l9.7.2 5.2-8.8c2.8-4.8 7.9-13.6 11.4-19.5C66 118 89.8 101.9 126 96.5c9.8-1.5 39.6-1.9 50-.7l5.5.7-.3 12.5c-1.3 57.7-8.5 116.6-19.7 161.1-14.9 59.2-36.2 105.4-71.7 155.7C58.5 470.1 55 477.1 55 494.5c0 18.4 5.7 32.2 18.5 45.1 9.3 9.4 18 14.3 30.2 17 17.3 3.8 38.1-1.3 52.4-12.9 23.3-18.9 37.1-57.5 47.8-133.2 5.3-37.3 12.8-112.4 16.6-167 .3-4.4 1-13 1.5-19 .5-6.1 1.9-22.5 3-36.5 3.3-40.7 6.9-83.1 7.6-87.8l.5-4.2H354v2.8c0 12.8-5.1 75.3-12.5 152.7-10.4 108.7-14.7 178.4-12.5 202 5.1 53.4 31.7 88.3 76.8 100.7 6.6 1.8 10.6 2.1 27.7 2.2 22.2.1 28.2-.9 42.7-6.9 24.1-10.2 46.6-33.9 61.3-64.8 11.8-24.7 20.1-57.1 20.8-81.2l.2-8-9.2-.3c-10.7-.3-10.7-.4-11.6 9.8-1.4 14.8-7.8 31.9-15.4 41.1-11.6 14-27.2 20.9-47.6 20.9-34.3 0-53.6-20.3-61.2-64.3-4.9-28.9-3.6-78.9 4-153.7 5.3-51.9 8.9-99.2 10.1-132.8l.7-19.3 65.4.7 65.5.7-.7-42.9c-.4-23.6-.9-43.1-1.1-43.3-.8-.9-310.1-.9-331.9-.1z"/></svg>